<mxfile host="app.diagrams.net" modified="2022-10-25T13:51:27.044Z" agent="5.0 (Windows NT 10.0; Win64; x64) AppleWebKit/537.36 (KHTML, like Gecko) Chrome/106.0.0.0 Safari/537.36" etag="BTmxHTZpETgHABWETFS9" version="20.5.1" type="github">
  <diagram id="C5RBs43oDa-KdzZeNtuy" name="Page-1">
    <mxGraphModel dx="1422" dy="754" grid="1" gridSize="10" guides="1" tooltips="1" connect="1" arrows="1" fold="1" page="1" pageScale="1" pageWidth="827" pageHeight="1169" math="0" shadow="0">
      <root>
        <mxCell id="WIyWlLk6GJQsqaUBKTNV-0" />
        <mxCell id="WIyWlLk6GJQsqaUBKTNV-1" parent="WIyWlLk6GJQsqaUBKTNV-0" />
        <mxCell id="NHHZj94KwkTv9wrkSFR0-2" value="" style="edgeStyle=orthogonalEdgeStyle;rounded=0;orthogonalLoop=1;jettySize=auto;html=1;entryX=0.5;entryY=0;entryDx=0;entryDy=0;" edge="1" parent="WIyWlLk6GJQsqaUBKTNV-1" source="NHHZj94KwkTv9wrkSFR0-0" target="NHHZj94KwkTv9wrkSFR0-15">
          <mxGeometry relative="1" as="geometry">
            <mxPoint x="429" y="340" as="targetPoint" />
          </mxGeometry>
        </mxCell>
        <mxCell id="NHHZj94KwkTv9wrkSFR0-0" value="Start the robot" style="ellipse;whiteSpace=wrap;html=1;" vertex="1" parent="WIyWlLk6GJQsqaUBKTNV-1">
          <mxGeometry x="369" y="90" width="120" height="80" as="geometry" />
        </mxCell>
        <mxCell id="NHHZj94KwkTv9wrkSFR0-4" value="" style="edgeStyle=orthogonalEdgeStyle;rounded=0;orthogonalLoop=1;jettySize=auto;html=1;" edge="1" parent="WIyWlLk6GJQsqaUBKTNV-1" target="NHHZj94KwkTv9wrkSFR0-3">
          <mxGeometry relative="1" as="geometry">
            <mxPoint x="429" y="400" as="sourcePoint" />
          </mxGeometry>
        </mxCell>
        <mxCell id="NHHZj94KwkTv9wrkSFR0-10" value="" style="edgeStyle=orthogonalEdgeStyle;rounded=0;orthogonalLoop=1;jettySize=auto;html=1;exitX=0;exitY=0.5;exitDx=0;exitDy=0;" edge="1" parent="WIyWlLk6GJQsqaUBKTNV-1" source="NHHZj94KwkTv9wrkSFR0-15" target="NHHZj94KwkTv9wrkSFR0-9">
          <mxGeometry relative="1" as="geometry">
            <mxPoint x="369" y="370" as="sourcePoint" />
          </mxGeometry>
        </mxCell>
        <mxCell id="NHHZj94KwkTv9wrkSFR0-6" value="" style="edgeStyle=orthogonalEdgeStyle;rounded=0;orthogonalLoop=1;jettySize=auto;html=1;" edge="1" parent="WIyWlLk6GJQsqaUBKTNV-1" source="NHHZj94KwkTv9wrkSFR0-3" target="NHHZj94KwkTv9wrkSFR0-5">
          <mxGeometry relative="1" as="geometry" />
        </mxCell>
        <mxCell id="NHHZj94KwkTv9wrkSFR0-12" style="edgeStyle=orthogonalEdgeStyle;rounded=0;orthogonalLoop=1;jettySize=auto;html=1;entryX=0.5;entryY=1;entryDx=0;entryDy=0;" edge="1" parent="WIyWlLk6GJQsqaUBKTNV-1" source="NHHZj94KwkTv9wrkSFR0-3" target="NHHZj94KwkTv9wrkSFR0-9">
          <mxGeometry relative="1" as="geometry">
            <mxPoint x="269" y="470" as="targetPoint" />
            <Array as="points">
              <mxPoint x="229" y="500" />
            </Array>
          </mxGeometry>
        </mxCell>
        <mxCell id="NHHZj94KwkTv9wrkSFR0-3" value="Did robot turn the right way?" style="whiteSpace=wrap;html=1;" vertex="1" parent="WIyWlLk6GJQsqaUBKTNV-1">
          <mxGeometry x="369" y="480" width="120" height="60" as="geometry" />
        </mxCell>
        <mxCell id="NHHZj94KwkTv9wrkSFR0-5" value="End" style="ellipse;whiteSpace=wrap;html=1;" vertex="1" parent="WIyWlLk6GJQsqaUBKTNV-1">
          <mxGeometry x="569" y="480" width="120" height="60" as="geometry" />
        </mxCell>
        <mxCell id="NHHZj94KwkTv9wrkSFR0-7" value="Yes&lt;br&gt;" style="text;html=1;align=center;verticalAlign=middle;resizable=0;points=[];autosize=1;strokeColor=none;fillColor=none;" vertex="1" parent="WIyWlLk6GJQsqaUBKTNV-1">
          <mxGeometry x="429" y="400" width="40" height="30" as="geometry" />
        </mxCell>
        <mxCell id="NHHZj94KwkTv9wrkSFR0-8" value="Yes&lt;br&gt;" style="text;html=1;align=center;verticalAlign=middle;resizable=0;points=[];autosize=1;strokeColor=none;fillColor=none;" vertex="1" parent="WIyWlLk6GJQsqaUBKTNV-1">
          <mxGeometry x="489" y="480" width="40" height="30" as="geometry" />
        </mxCell>
        <mxCell id="NHHZj94KwkTv9wrkSFR0-26" style="edgeStyle=orthogonalEdgeStyle;rounded=0;orthogonalLoop=1;jettySize=auto;html=1;entryX=0.5;entryY=1;entryDx=0;entryDy=0;" edge="1" parent="WIyWlLk6GJQsqaUBKTNV-1" source="NHHZj94KwkTv9wrkSFR0-9" target="NHHZj94KwkTv9wrkSFR0-25">
          <mxGeometry relative="1" as="geometry" />
        </mxCell>
        <mxCell id="NHHZj94KwkTv9wrkSFR0-9" value="Fix the code." style="whiteSpace=wrap;html=1;" vertex="1" parent="WIyWlLk6GJQsqaUBKTNV-1">
          <mxGeometry x="169" y="340" width="120" height="60" as="geometry" />
        </mxCell>
        <mxCell id="NHHZj94KwkTv9wrkSFR0-13" value="No" style="text;html=1;align=center;verticalAlign=middle;resizable=0;points=[];autosize=1;strokeColor=none;fillColor=none;" vertex="1" parent="WIyWlLk6GJQsqaUBKTNV-1">
          <mxGeometry x="309" y="340" width="40" height="30" as="geometry" />
        </mxCell>
        <mxCell id="NHHZj94KwkTv9wrkSFR0-14" value="No&lt;br&gt;" style="text;html=1;align=center;verticalAlign=middle;resizable=0;points=[];autosize=1;strokeColor=none;fillColor=none;" vertex="1" parent="WIyWlLk6GJQsqaUBKTNV-1">
          <mxGeometry x="229" y="470" width="40" height="30" as="geometry" />
        </mxCell>
        <mxCell id="NHHZj94KwkTv9wrkSFR0-15" value="Did robot go the right distance?" style="rhombus;whiteSpace=wrap;html=1;" vertex="1" parent="WIyWlLk6GJQsqaUBKTNV-1">
          <mxGeometry x="379" y="320" width="100" height="100" as="geometry" />
        </mxCell>
        <mxCell id="NHHZj94KwkTv9wrkSFR0-20" style="edgeStyle=orthogonalEdgeStyle;rounded=0;orthogonalLoop=1;jettySize=auto;html=1;entryX=0;entryY=0.5;entryDx=0;entryDy=0;" edge="1" parent="WIyWlLk6GJQsqaUBKTNV-1" source="NHHZj94KwkTv9wrkSFR0-18" target="NHHZj94KwkTv9wrkSFR0-0">
          <mxGeometry relative="1" as="geometry" />
        </mxCell>
        <mxCell id="NHHZj94KwkTv9wrkSFR0-18" value="Upload the code." style="rounded=0;whiteSpace=wrap;html=1;" vertex="1" parent="WIyWlLk6GJQsqaUBKTNV-1">
          <mxGeometry x="169" y="100" width="120" height="60" as="geometry" />
        </mxCell>
        <mxCell id="NHHZj94KwkTv9wrkSFR0-27" style="edgeStyle=orthogonalEdgeStyle;rounded=0;orthogonalLoop=1;jettySize=auto;html=1;entryX=0.5;entryY=1;entryDx=0;entryDy=0;" edge="1" parent="WIyWlLk6GJQsqaUBKTNV-1" source="NHHZj94KwkTv9wrkSFR0-25" target="NHHZj94KwkTv9wrkSFR0-18">
          <mxGeometry relative="1" as="geometry" />
        </mxCell>
        <mxCell id="NHHZj94KwkTv9wrkSFR0-30" style="edgeStyle=orthogonalEdgeStyle;rounded=0;orthogonalLoop=1;jettySize=auto;html=1;exitX=0;exitY=0.5;exitDx=0;exitDy=0;entryX=-0.025;entryY=0.633;entryDx=0;entryDy=0;entryPerimeter=0;" edge="1" parent="WIyWlLk6GJQsqaUBKTNV-1" source="NHHZj94KwkTv9wrkSFR0-25" target="NHHZj94KwkTv9wrkSFR0-9">
          <mxGeometry relative="1" as="geometry">
            <mxPoint x="169" y="280" as="targetPoint" />
            <Array as="points">
              <mxPoint x="139" y="250" />
              <mxPoint x="139" y="378" />
            </Array>
          </mxGeometry>
        </mxCell>
        <mxCell id="NHHZj94KwkTv9wrkSFR0-25" value="Does the code look like it will work properly?&lt;br&gt;" style="rhombus;whiteSpace=wrap;html=1;" vertex="1" parent="WIyWlLk6GJQsqaUBKTNV-1">
          <mxGeometry x="169" y="200" width="120" height="100" as="geometry" />
        </mxCell>
        <mxCell id="NHHZj94KwkTv9wrkSFR0-28" value="Yes" style="text;html=1;align=center;verticalAlign=middle;resizable=0;points=[];autosize=1;strokeColor=none;fillColor=none;" vertex="1" parent="WIyWlLk6GJQsqaUBKTNV-1">
          <mxGeometry x="229" y="160" width="40" height="30" as="geometry" />
        </mxCell>
        <mxCell id="NHHZj94KwkTv9wrkSFR0-31" value="No&lt;br&gt;" style="text;html=1;align=center;verticalAlign=middle;resizable=0;points=[];autosize=1;strokeColor=none;fillColor=none;" vertex="1" parent="WIyWlLk6GJQsqaUBKTNV-1">
          <mxGeometry x="139" y="250" width="40" height="30" as="geometry" />
        </mxCell>
      </root>
    </mxGraphModel>
  </diagram>
</mxfile>
